HIERARCHY
ROOT joint_Root
{
  OFFSET 0 0 0
  CHANNELS 6 Xposition Yposition Zposition Zrotation Xrotation Yrotation
  JOINT Hips
  {
    OFFSET 0.847027 93.984 -452.225
    CHANNELS 6 Xposition Yposition Zposition Zrotation Xrotation Yrotation
    JOINT Spine
    {
      OFFSET 15.7357 0 0
      CHANNELS 6 Xposition Yposition Zposition Zrotation Xrotation Yrotation
      JOINT Chest
      {
        OFFSET 8.98455 -0.406207 0
        CHANNELS 6 Xposition Yposition Zposition Zrotation Xrotation Yrotation
        JOINT Neck
        {
          OFFSET 16.3773 0 0
          CHANNELS 6 Xposition Yposition Zposition Zrotation Xrotation Yrotation
          JOINT Head
          {
            OFFSET 6.45672 0 0
            CHANNELS 6 Xposition Yposition Zposition Zrotation Xrotation Yrotation
            End Site
            {
              OFFSET 0 0 0
            }
          }
        }
        JOINT Shoulder_L
        {
          OFFSET 12.9942 -0.242716 4.98039
          CHANNELS 6 Xposition Yposition Zposition Zrotation Xrotation Yrotation
          JOINT UpperArm_L
          {
            OFFSET 5.34809 0 0
            CHANNELS 6 Xposition Yposition Zposition Zrotation Xrotation Yrotation
            JOINT LowerArm_L
            {
              OFFSET 24.3286 1.87007e-05 0
              CHANNELS 6 Xposition Yposition Zposition Zrotation Xrotation Yrotation
              JOINT Hand_L
              {
                OFFSET 22.2916 0 0
                CHANNELS 6 Xposition Yposition Zposition Zrotation Xrotation Yrotation
                End Site
                {
                  OFFSET 0 0 0
                }
              }
            }
          }
        }
        JOINT Shoulder_R
        {
          OFFSET 12.9945 -0.242716 -4.98039
          CHANNELS 6 Xposition Yposition Zposition Zrotation Xrotation Yrotation
          JOINT UpperArm_R
          {
            OFFSET -5.34813 0 0
            CHANNELS 6 Xposition Yposition Zposition Zrotation Xrotation Yrotation
            JOINT LowerArm_R
            {
              OFFSET -24.3289 0.000322201 0
              CHANNELS 6 Xposition Yposition Zposition Zrotation Xrotation Yrotation
              JOINT Hand_R
              {
                OFFSET -22.2915 -0.000108084 0
                CHANNELS 6 Xposition Yposition Zposition Zrotation Xrotation Yrotation
                End Site
                {
                  OFFSET 0 0 0
                }
              }
            }
          }
        }
      }
    }
    JOINT UpperLeg_L
    {
      OFFSET -2.19248 -6.46944 0
      CHANNELS 6 Xposition Yposition Zposition Zrotation Xrotation Yrotation
      JOINT LowerLeg_L
      {
        OFFSET 39.0811 0 -1.23785e-05
        CHANNELS 6 Xposition Yposition Zposition Zrotation Xrotation Yrotation
        JOINT Foot_L
        {
          OFFSET 40.9854 0 -1.26872e-05
          CHANNELS 6 Xposition Yposition Zposition Zrotation Xrotation Yrotation
          JOINT Toes_L
          {
            OFFSET 11.7543 0 0
            CHANNELS 6 Xposition Yposition Zposition Zrotation Xrotation Yrotation
            End Site
            {
              OFFSET 0 0 0
            }
          }
        }
      }
    }
    JOINT UpperLeg_R
    {
      OFFSET -2.19251 6.46944 0
      CHANNELS 6 Xposition Yposition Zposition Zrotation Xrotation Yrotation
      JOINT LowerLeg_R
      {
        OFFSET -39.0811 -0.00228153 -0.0401928
        CHANNELS 6 Xposition Yposition Zposition Zrotation Xrotation Yrotation
        JOINT Foot_R
        {
          OFFSET -40.9854 0 0
          CHANNELS 6 Xposition Yposition Zposition Zrotation Xrotation Yrotation
          JOINT Toes_R
          {
            OFFSET -11.7543 0 0
            CHANNELS 6 Xposition Yposition Zposition Zrotation Xrotation Yrotation
            End Site
            {
              OFFSET 0 0 0
            }
          }
        }
      }
    }
  }
}
MOTION
Frames:	8
Frame Time:	0.0333333
0 0 0 0 0 -0 -9.80672 92.3617 -0.426229 90.6289 -0.139007 1.23916 15.7357 5.1072e-06 -5.51765e-07 73.8945 87.1015 -73.6019 8.98455 -0.406207 -4.3199e-07 -2.19261 -1.63311 0.554065 16.3773 -1.3905e-06 -6.99897e-07 -1.62185 -2.14263 1.53707 6.45672 -1.25837e-06 -1.02172e-07 -5.55825 -0.442124 -2.36113 12.9942 -0.242716 4.98039 -91.3486 4.323 -87.6561 5.34809 -7.22636e-06 -6.2814e-07 -78.2913 16.1688 0.32698 24.3286 1.87007e-05 4.90208e-06 0.77322 5.44663 -8.09184 22.2916 -9.88446e-07 4.63217e-06 9.86669 5.49179 -6.19491 12.9945 -0.242716 -4.98039 87.7393 9.78213 -91.9192 -5.34813 -1.25947e-06 -3.79883e-06 -71.0732 1.16939 9.483 -24.3289 0.000322201 -8.65921e-06 5.57979 16.2321 -19.2677 -22.2915 -0.000108084 -4.47941e-06 8.06972 5.35411 -1.50261 -2.19248 -6.46944 -1.22534e-07 -173.299 -9.45533 -2.87653 39.0811 -6.73843e-06 -1.23785e-05 -0.0293602 0.133886 16.6738 40.9854 -6.48686e-06 -1.26872e-05 -5.40838 4.41623 -61.7938 11.7543 -2.30145e-07 3.05095e-06 0.0232526 -0.036255 -17.2246 -2.19251 6.46944 -1.45247e-06 174.542 13.2522 175.255 -39.0811 -0.00228153 -0.0401928 -0.0276923 0.126742 20.7927 -40.9854 7.72618e-06 5.99936e-06 -2.7522 3.76156 -64.1925 -11.7543 -5.6619e-06 -5.58687e-06 0.0662304 -0.0745767 -17.3074 
0 0 0 0 0 -0 -10.1104 92.4106 -0.51397 90.5976 -0.234294 0.697768 15.7357 5.1072e-06 -5.51765e-07 73.9352 87.1288 -73.5524 8.98455 -0.406207 -4.3199e-07 -2.24261 -1.62205 0.733689 16.3773 -1.3905e-06 -6.99897e-07 -2.4217 -1.94146 1.47938 6.45672 -1.25837e-06 -1.02172e-07 -6.0402 -0.293368 -2.49156 12.9942 -0.242716 4.98039 -91.308 4.01518 -86.9398 5.34809 -7.22636e-06 -6.2814e-07 -77.5668 10.7453 1.60985 24.3286 1.87007e-05 4.90208e-06 0.696143 4.68617 -8.45943 22.2916 -9.88446e-07 4.63217e-06 5.82459 5.46708 -5.25462 12.9945 -0.242716 -4.98039 87.7552 9.42176 -91.5342 -5.34813 -1.25947e-06 -3.79883e-06 -70.3159 0.234107 9.80654 -24.3289 0.000322201 -8.65921e-06 5.74028 16.7875 -19.1934 -22.2915 -0.000108084 -4.47941e-06 7.06315 5.3866 -2.50875 -2.19248 -6.46944 -1.22534e-07 -173.136 -9.81596 -3.11427 39.0811 -6.73843e-06 -1.23785e-05 -0.0241886 0.118271 15.9551 40.9854 -6.48686e-06 -1.26872e-05 -5.62148 4.57778 -61.3084 11.7543 -2.30145e-07 3.05095e-06 0.0274654 -0.0429452 -17.3434 -2.19251 6.46944 -1.45247e-06 174.941 13.2804 174.704 -39.0811 -0.00228153 -0.0401928 -0.0244219 0.118488 20.5951 -40.9854 7.72618e-06 5.99936e-06 -2.51323 3.79805 -64.0603 -11.7543 -5.6619e-06 -5.58687e-06 0.0598494 -0.0673212 -17.2363 
0 0 0 0 0 -0 -10.3722 92.468 -0.60831 90.635 -0.363071 0.0960064 15.7357 5.1072e-06 -5.51765e-07 75.286 87.2341 -74.8372 8.98455 -0.406207 -4.3199e-07 -2.41006 -1.44447 0.867187 16.3773 -1.3905e-06 -6.99897e-07 -2.74345 -1.73129 1.38883 6.45672 -1.25837e-06 -1.02172e-07 -6.79211 -0.356918 -2.59933 12.9942 -0.242716 4.98039 -91.2712 3.65707 -85.8173 5.34809 -7.22636e-06 -6.2814e-07 -74.8894 6.17262 2.1473 24.3286 1.87007e-05 4.90208e-06 0.650379 4.27152 -8.66516 22.2916 -9.88446e-07 4.63217e-06 4.37454 5.44978 -4.63096 12.9945 -0.242716 -4.98039 87.7895 8.96103 -91.0817 -5.34813 -1.25947e-06 -3.79883e-06 -68.3323 -1.50329 10.3363 -24.3289 0.000322201 -8.65921e-06 5.94381 17.2188 -19.3803 -22.2915 -0.000108084 -4.47941e-06 6.27997 5.39856 -2.89051 -2.19248 -6.46944 -1.22534e-07 -173.076 -10.4424 -3.32476 39.0811 -6.73843e-06 -1.23785e-05 -0.0162468 0.091731 15.0744 40.9854 -6.48686e-06 -1.26872e-05 -5.77305 5.00172 -60.7258 11.7543 -2.30145e-07 3.05095e-06 0.0314403 -0.0492601 -17.4556 -2.19251 6.46944 -1.45247e-06 175.225 13.4482 174.112 -39.0811 -0.00228153 -0.0401928 -0.0203641 0.108131 20.3522 -40.9854 7.72618e-06 5.99936e-06 -2.29512 4.00132 -63.8843 -11.7543 -5.6619e-06 -5.58687e-06 0.0591753 -0.0665473 -17.2288 
0 0 0 0 0 -0 -10.5942 92.5371 -0.760176 90.8107 -0.161805 -0.533588 15.7357 5.1072e-06 -5.51765e-07 76.3379 87.3824 -75.9576 8.98455 -0.406207 -4.3199e-07 -2.67492 -1.27074 0.731152 16.3773 -1.3905e-06 -6.99897e-07 -2.87809 -1.89526 1.34473 6.45672 -1.25837e-06 -1.02172e-07 -7.25909 -0.516127 -2.23172 12.9942 -0.242716 4.98039 -91.0953 3.0739 -85.3775 5.34809 -7.22636e-06 -6.2814e-07 -70.4071 1.48663 2.45832 24.3286 1.87007e-05 4.90208e-06 0.798892 5.27355 -8.62593 22.2916 -9.88446e-07 4.63217e-06 5.02753 5.45782 -4.91901 12.9945 -0.242716 -4.98039 87.8119 8.62983 -90.714 -5.34813 -1.25947e-06 -3.79883e-06 -65.0518 -3.44725 11.19 -24.3289 0.000322201 -8.65921e-06 5.65481 16.5792 -19.1407 -22.2915 -0.000108084 -4.47941e-06 6.23198 5.40065 -2.95884 -2.19248 -6.46944 -1.22534e-07 -173.264 -11.0893 -4.28969 39.0811 -6.73843e-06 -1.23785e-05 -0.00680836 0.0552274 15.2466 40.9854 -6.48686e-06 -1.26872e-05 -5.32787 5.73523 -60.0068 11.7543 -2.30145e-07 3.05095e-06 0.0400971 -0.0631192 -17.701 -2.19251 6.46944 -1.45247e-06 175.363 13.9068 173.481 -39.0811 -0.00228153 -0.0401928 -0.0153333 0.0951228 20.1328 -40.9854 7.72618e-06 5.99936e-06 -2.10422 4.17277 -63.6951 -11.7543 -5.6619e-06 -5.58687e-06 0.0487439 -0.0547062 -17.1127 
0 0 0 0 0 -0 -10.7724 92.6414 -0.949538 91.1108 0.480039 -1.12893 15.7357 5.1072e-06 -5.51765e-07 73.8689 87.4435 -73.6163 8.98455 -0.406207 -4.3199e-07 -2.85151 -1.44342 0.469362 16.3773 -1.3905e-06 -6.99897e-07 -3.26831 -2.06148 1.27902 6.45672 -1.25837e-06 -1.02172e-07 -7.35292 -0.818373 -1.47588 12.9942 -0.242716 4.98039 -90.8037 2.21236 -85.0299 5.34809 -7.22636e-06 -6.2814e-07 -64.6714 -3.0126 2.86232 24.3286 1.87007e-05 4.90208e-06 0.980428 6.00517 -9.28864 22.2916 -9.88446e-07 4.63217e-06 6.77609 5.47028 -5.37572 12.9945 -0.242716 -4.98039 87.9022 8.02215 -90.293 -5.34813 -1.25947e-06 -3.79883e-06 -60.6404 -5.44606 11.8591 -24.3289 0.000322201 -8.65921e-06 5.38069 16.2624 -18.5932 -22.2915 -0.000108084 -4.47941e-06 6.21455 5.40199 -3.00183 -2.19248 -6.46944 -1.22534e-07 -173.564 -11.4474 -5.58729 39.0811 -6.73843e-06 -1.23785e-05 -0.00565853 0.0495828 15.7347 40.9854 -6.48686e-06 -1.26872e-05 -5.32793 6.69217 -58.6091 11.7543 -2.30145e-07 3.05095e-06 -0.0729198 -0.227659 -18.1808 -2.19251 6.46944 -1.45247e-06 175.391 13.851 173.031 -39.0811 -0.00228153 -0.0401928 -0.0137518 0.0914966 19.6941 -40.9854 7.72618e-06 5.99936e-06 -2.11473 3.4053 -63.4358 -11.7543 -5.6619e-06 -5.58687e-06 0.0436569 -0.0489347 -17.0562 
0 0 0 0 0 -0 -10.8631 92.8048 -1.11558 91.7169 1.33047 -1.71099 15.7357 5.1072e-06 -5.51765e-07 70.199 87.4328 -70.2113 8.98455 -0.406207 -4.3199e-07 -2.93611 -1.73742 -0.0692046 16.3773 -1.3905e-06 -6.99897e-07 -3.61391 -2.36295 1.32998 6.45672 -1.25837e-06 -1.02172e-07 -7.66617 -1.23663 -0.521746 12.9942 -0.242716 4.98039 -90.4248 1.16078 -84.8986 5.34809 -7.22636e-06 -6.2814e-07 -57.9937 -7.4569 3.68568 24.3286 1.87007e-05 4.90208e-06 1.20776 6.31831 -10.8428 22.2916 -9.88446e-07 4.63217e-06 8.47503 5.47564 -5.58104 12.9945 -0.242716 -4.98039 88.023 7.31262 -89.8257 -5.34813 -1.25947e-06 -3.79883e-06 -55.1202 -7.66685 12.9348 -24.3289 0.000322201 -8.65921e-06 5.27686 15.9554 -18.5754 -22.2915 -0.000108084 -4.47941e-06 6.37104 5.39816 -2.87749 -2.19248 -6.46944 -1.22534e-07 -174.186 -11.8005 -7.03936 39.0811 -6.73843e-06 -1.23785e-05 -0.00584179 0.0470575 16.3705 40.9854 -6.48686e-06 -1.26872e-05 -5.75307 8.01012 -56.5584 11.7543 -2.30145e-07 3.05095e-06 0.172224 -0.0112127 -19.5069 -2.19251 6.46944 -1.45247e-06 175.045 13.7081 172.815 -39.0811 -0.00228153 -0.0401928 -0.0133352 0.0904627 18.9567 -40.9854 7.72618e-06 5.99936e-06 -2.24774 2.33021 -63.0626 -11.7543 -5.6619e-06 -5.58687e-06 0.0342782 -0.0383597 -16.9522 
0 0 0 0 0 -0 -10.8574 92.9674 -1.28163 92.1699 2.23068 -2.35134 15.7357 5.1072e-06 -5.51765e-07 67.1464 87.3944 -67.4121 8.98455 -0.406207 -4.3199e-07 -2.96942 -1.99817 -0.583445 16.3773 -1.3905e-06 -6.99897e-07 -3.82861 -2.85301 1.35682 6.45672 -1.25837e-06 -1.02172e-07 -8.25484 -1.78369 0.708032 12.9942 -0.242716 4.98039 -89.9761 -0.0653517 -84.9329 5.34809 -7.22636e-06 -6.2814e-07 -50.8913 -10.9003 4.92203 24.3286 1.87007e-05 4.90208e-06 1.26852 5.47898 -13.0596 22.2916 -9.88446e-07 4.63217e-06 10.6436 5.4866 -5.99741 12.9945 -0.242716 -4.98039 88.177 6.53315 -89.3702 -5.34813 -1.25947e-06 -3.79883e-06 -48.8652 -9.87764 14.6239 -24.3289 0.000322201 -8.65921e-06 4.7842 14.2217 -18.8167 -22.2915 -0.000108084 -4.47941e-06 7.12693 5.39321 -2.71888 -2.19248 -6.46944 -1.22534e-07 -174.553 -11.177 -8.67841 39.0811 -6.73843e-06 -1.23785e-05 -0.00316524 0.0359057 17.5913 40.9854 -6.48686e-06 -1.26872e-05 -7.53723 8.59957 -55.9891 11.7543 -2.30145e-07 3.05095e-06 0.0739452 -0.118623 -18.6779 -2.19251 6.46944 -1.45247e-06 174.774 14.0946 172.676 -39.0811 -0.00228153 -0.0401928 -0.0135022 0.0916597 17.9927 -40.9854 7.72618e-06 5.99936e-06 -2.37065 1.70341 -62.5447 -11.7543 -5.6619e-06 -5.58687e-06 0.0291729 -0.0326124 -16.8957 
0 0 0 0 0 -0 -10.7367 93.0638 -1.44237 92.273 2.83326 -2.92331 15.7357 5.1072e-06 -5.51765e-07 67.993 87.3151 -68.4168 8.98455 -0.406207 -4.3199e-07 -2.79532 -1.9724 -0.895833 16.3773 -1.3905e-06 -6.99897e-07 -4.07528 -3.4343 1.44228 6.45672 -1.25837e-06 -1.02172e-07 -8.95178 -2.52401 1.82718 12.9942 -0.242716 4.98039 -89.531 -1.28802 -84.9897 5.34809 -7.22636e-06 -6.2814e-07 -43.8033 -13.2903 6.19999 24.3286 1.87007e-05 4.90208e-06 0.865421 3.16917 -15.2902 22.2916 -9.88446e-07 4.63217e-06 13.4055 5.50458 -6.71331 12.9945 -0.242716 -4.98039 88.3395 5.75207 -88.8667 -5.34813 -1.25947e-06 -3.79883e-06 -42.0893 -11.85 16.6077 -24.3289 0.000322201 -8.65921e-06 4.10393 12.1572 -18.8187 -22.2915 -0.000108084 -4.47941e-06 7.98337 5.39021 -2.62291 -2.19248 -6.46944 -1.22534e-07 -174.558 -9.81605 -10.0583 39.0811 -6.73843e-06 -1.23785e-05 -0.00252424 0.0311143 18.9178 40.9854 -6.48686e-06 -1.26872e-05 -8.78017 8.27681 -57.7941 11.7543 -2.30145e-07 3.05095e-06 0.0763668 -0.122681 -18.7489 -2.19251 6.46944 -1.45247e-06 174.755 14.2954 172.47 -39.0811 -0.00228153 -0.0401928 -0.0141735 0.0947575 17.1998 -40.9854 7.72618e-06 5.99936e-06 -2.53433 1.23132 -62.0727 -11.7543 -5.6619e-06 -5.58687e-06 0.0309809 -0.0346585 -16.9157 
